<?xml version="1.0" encoding="UTF-8" standalone="no"?>
<!DOCTYPE svg PUBLIC "-//W3C//DTD SVG 1.1//EN" "http://www.w3.org/Graphics/SVG/1.1/DTD/svg11.dtd">
<svg width="100%" height="100%" viewBox="0 0 1622 1054" version="1.1" xmlns="http://www.w3.org/2000/svg" xmlns:xlink="http://www.w3.org/1999/xlink" xml:space="preserve" xmlns:serif="http://www.serif.com/" style="fill-rule:evenodd;clip-rule:evenodd;stroke-linejoin:round;stroke-miterlimit:2;">
    <g transform="matrix(1,0,0,1,-2.27374e-13,-389.724)">
        <g transform="matrix(3.35445,0,0,3.35445,-5221.73,-3081.11)">
            <g id="Text" transform="matrix(0.175212,0,0,0.173118,1292.69,1071.87)">
                <g transform="matrix(318.832,0,0,318.832,1636.7,1421.71)">
                    <path d="M0.243,-0.474C0.126,-0.474 0.034,-0.394 0.034,-0.233C0.034,-0.065 0.123,0.007 0.24,0.007C0.351,0.007 0.391,-0.073 0.391,-0.073L0.395,-0.073L0.411,-0L0.568,-0L0.568,-0.104L0.505,-0.104L0.505,-0.746L0.308,-0.746L0.308,-0.642L0.378,-0.642L0.378,-0.461C0.378,-0.459 0.384,-0.417 0.384,-0.417L0.38,-0.417C0.379,-0.419 0.346,-0.474 0.243,-0.474ZM0.283,-0.096C0.207,-0.096 0.159,-0.144 0.159,-0.234C0.159,-0.326 0.213,-0.371 0.281,-0.371C0.335,-0.371 0.363,-0.349 0.377,-0.332L0.377,-0.144C0.364,-0.12 0.327,-0.096 0.283,-0.096Z" style="fill:rgb(77,77,77);fill-rule:nonzero;"/>
                </g>
                <g transform="matrix(318.832,0,0,318.832,1825.76,1421.71)">
                    <path d="M0.42,-0.47C0.415,-0.47 0.394,-0.474 0.37,-0.474C0.239,-0.474 0.212,-0.35 0.212,-0.35L0.208,-0.35L0.194,-0.467L0.036,-0.467L0.036,-0.363L0.1,-0.363L0.1,-0.104L0.036,-0.104L0.036,-0L0.308,-0L0.308,-0.106L0.227,-0.106L0.227,-0.26C0.232,-0.276 0.265,-0.358 0.366,-0.358C0.396,-0.358 0.415,-0.352 0.42,-0.35L0.42,-0.47Z" style="fill:rgb(77,77,77);fill-rule:nonzero;"/>
                </g>
                <g transform="matrix(318.832,0,0,318.832,1963.5,1421.71)">
                    <path d="M0.256,-0.003L0.249,0.016C0.224,0.08 0.151,0.136 0.034,0.169L0.074,0.279C0.245,0.244 0.337,0.127 0.38,0.007L0.521,-0.363L0.588,-0.363L0.588,-0.467L0.344,-0.467L0.344,-0.363L0.394,-0.363L0.303,-0.114L0.294,-0.114L0.204,-0.363L0.251,-0.363L0.251,-0.467L0.006,-0.467L0.006,-0.363L0.072,-0.363L0.219,-0.003L0.256,-0.003Z" style="fill:rgb(77,77,77);fill-rule:nonzero;"/>
                </g>
                <g transform="matrix(318.832,0,0,318.832,2150.02,1421.71)">
                    <path d="M0.358,-0.075L0.373,-0L0.519,-0L0.519,-0.104L0.467,-0.104L0.467,-0.291C0.467,-0.42 0.378,-0.474 0.251,-0.474C0.095,-0.474 0.043,-0.394 0.043,-0.338L0.043,-0.306L0.155,-0.306L0.155,-0.315C0.155,-0.349 0.185,-0.377 0.246,-0.377C0.308,-0.377 0.34,-0.351 0.34,-0.297L0.34,-0.263L0.247,-0.263C0.108,-0.263 0.03,-0.215 0.03,-0.13C0.03,-0.048 0.093,0.007 0.191,0.007C0.327,0.007 0.355,-0.075 0.355,-0.075L0.358,-0.075ZM0.34,-0.141C0.332,-0.131 0.298,-0.086 0.23,-0.086C0.187,-0.086 0.156,-0.108 0.156,-0.14C0.156,-0.178 0.198,-0.196 0.26,-0.196L0.34,-0.196L0.34,-0.141Z" style="fill:rgb(77,77,77);fill-rule:nonzero;"/>
                </g>
                <g transform="matrix(318.832,0,0,318.832,2322.5,1421.71)">
                    <path d="M0.243,-0.474C0.126,-0.474 0.034,-0.394 0.034,-0.233C0.034,-0.065 0.123,0.007 0.24,0.007C0.351,0.007 0.391,-0.073 0.391,-0.073L0.395,-0.073L0.411,-0L0.568,-0L0.568,-0.104L0.505,-0.104L0.505,-0.746L0.308,-0.746L0.308,-0.642L0.378,-0.642L0.378,-0.461C0.378,-0.459 0.384,-0.417 0.384,-0.417L0.38,-0.417C0.379,-0.419 0.346,-0.474 0.243,-0.474ZM0.283,-0.096C0.207,-0.096 0.159,-0.144 0.159,-0.234C0.159,-0.326 0.213,-0.371 0.281,-0.371C0.335,-0.371 0.363,-0.349 0.377,-0.332L0.377,-0.144C0.364,-0.12 0.327,-0.096 0.283,-0.096Z" style="fill:rgb(77,77,77);fill-rule:nonzero;"/>
                </g>
                <g transform="matrix(318.832,0,0,318.832,2511.57,1421.71)">
                    <path d="M0.072,-0L0.449,-0L0.449,-0.045L0.133,-0.045L0.4,-0.394C0.436,-0.441 0.449,-0.478 0.449,-0.531C0.449,-0.643 0.375,-0.718 0.261,-0.718C0.144,-0.718 0.073,-0.637 0.073,-0.531L0.124,-0.531C0.124,-0.631 0.187,-0.673 0.261,-0.673C0.348,-0.673 0.398,-0.616 0.398,-0.531C0.398,-0.49 0.386,-0.456 0.358,-0.42L0.072,-0.045L0.072,-0Z" style="fill:rgb(77,77,77);fill-rule:nonzero;"/>
                </g>
                <g transform="matrix(318.832,0,0,318.832,2675.45,1421.71)">
                    <path d="M0.243,-0.474C0.126,-0.474 0.034,-0.394 0.034,-0.233C0.034,-0.065 0.123,0.007 0.24,0.007C0.351,0.007 0.391,-0.073 0.391,-0.073L0.395,-0.073L0.411,-0L0.568,-0L0.568,-0.104L0.505,-0.104L0.505,-0.746L0.308,-0.746L0.308,-0.642L0.378,-0.642L0.378,-0.461C0.378,-0.459 0.384,-0.417 0.384,-0.417L0.38,-0.417C0.379,-0.419 0.346,-0.474 0.243,-0.474ZM0.283,-0.096C0.207,-0.096 0.159,-0.144 0.159,-0.234C0.159,-0.326 0.213,-0.371 0.281,-0.371C0.335,-0.371 0.363,-0.349 0.377,-0.332L0.377,-0.144C0.364,-0.12 0.327,-0.096 0.283,-0.096Z" style="fill:rgb(77,77,77);fill-rule:nonzero;"/>
                </g>
                <g transform="matrix(318.832,0,0,318.832,2864.52,1421.71)">
                    <path d="M0.358,-0.075L0.373,-0L0.519,-0L0.519,-0.104L0.467,-0.104L0.467,-0.291C0.467,-0.42 0.378,-0.474 0.251,-0.474C0.095,-0.474 0.043,-0.394 0.043,-0.338L0.043,-0.306L0.155,-0.306L0.155,-0.315C0.155,-0.349 0.185,-0.377 0.246,-0.377C0.308,-0.377 0.34,-0.351 0.34,-0.297L0.34,-0.263L0.247,-0.263C0.108,-0.263 0.03,-0.215 0.03,-0.13C0.03,-0.048 0.093,0.007 0.191,0.007C0.327,0.007 0.355,-0.075 0.355,-0.075L0.358,-0.075ZM0.34,-0.141C0.332,-0.131 0.298,-0.086 0.23,-0.086C0.187,-0.086 0.156,-0.108 0.156,-0.14C0.156,-0.178 0.198,-0.196 0.26,-0.196L0.34,-0.196L0.34,-0.141Z" style="fill:rgb(77,77,77);fill-rule:nonzero;"/>
                </g>
                <g transform="matrix(318.832,0,0,318.832,3037.01,1421.71)">
                    <path d="M0.098,-0.599L0.079,-0.467L0.014,-0.467L0.014,-0.369L0.079,-0.369L0.079,-0.179C0.079,-0.056 0.135,0.007 0.252,0.007C0.318,0.007 0.364,-0.012 0.364,-0.012L0.364,-0.118C0.364,-0.118 0.338,-0.104 0.279,-0.104C0.228,-0.104 0.206,-0.135 0.206,-0.187L0.206,-0.369L0.357,-0.369L0.357,-0.467L0.206,-0.467L0.206,-0.599L0.098,-0.599Z" style="fill:rgb(77,77,77);fill-rule:nonzero;"/>
                </g>
                <g transform="matrix(318.832,0,0,318.832,3160.07,1421.71)">
                    <path d="M0.358,-0.075L0.373,-0L0.519,-0L0.519,-0.104L0.467,-0.104L0.467,-0.291C0.467,-0.42 0.378,-0.474 0.251,-0.474C0.095,-0.474 0.043,-0.394 0.043,-0.338L0.043,-0.306L0.155,-0.306L0.155,-0.315C0.155,-0.349 0.185,-0.377 0.246,-0.377C0.308,-0.377 0.34,-0.351 0.34,-0.297L0.34,-0.263L0.247,-0.263C0.108,-0.263 0.03,-0.215 0.03,-0.13C0.03,-0.048 0.093,0.007 0.191,0.007C0.327,0.007 0.355,-0.075 0.355,-0.075L0.358,-0.075ZM0.34,-0.141C0.332,-0.131 0.298,-0.086 0.23,-0.086C0.187,-0.086 0.156,-0.108 0.156,-0.14C0.156,-0.178 0.198,-0.196 0.26,-0.196L0.34,-0.196L0.34,-0.141Z" style="fill:rgb(77,77,77);fill-rule:nonzero;"/>
                </g>
                <g transform="matrix(318.832,0,0,318.832,3327.46,1421.71)">
                    <path d="M0.383,-0L0.522,-0.363L0.589,-0.363L0.589,-0.467L0.345,-0.467L0.345,-0.363L0.395,-0.363L0.304,-0.114L0.295,-0.114L0.205,-0.363L0.252,-0.363L0.252,-0.467L0.007,-0.467L0.007,-0.363L0.073,-0.363L0.213,-0L0.383,-0Z" style="fill:rgb(77,77,77);fill-rule:nonzero;"/>
                </g>
                <g transform="matrix(318.832,0,0,318.832,3513.66,1421.71)">
                    <path d="M0.484,-0.266C0.484,-0.36 0.419,-0.474 0.273,-0.474C0.131,-0.474 0.032,-0.395 0.032,-0.234C0.032,-0.073 0.132,0.007 0.276,0.007C0.417,0.007 0.478,-0.051 0.478,-0.051L0.433,-0.145C0.433,-0.145 0.393,-0.096 0.296,-0.096C0.222,-0.096 0.169,-0.131 0.159,-0.206L0.476,-0.206C0.476,-0.206 0.484,-0.226 0.484,-0.266ZM0.274,-0.379C0.322,-0.379 0.366,-0.347 0.368,-0.28L0.159,-0.28C0.167,-0.339 0.209,-0.379 0.274,-0.379Z" style="fill:rgb(77,77,77);fill-rule:nonzero;"/>
                </g>
                <g transform="matrix(318.832,0,0,318.832,3678.18,1421.71)">
                    <path d="M0.42,-0.47C0.415,-0.47 0.394,-0.474 0.37,-0.474C0.239,-0.474 0.212,-0.35 0.212,-0.35L0.208,-0.35L0.194,-0.467L0.036,-0.467L0.036,-0.363L0.1,-0.363L0.1,-0.104L0.036,-0.104L0.036,-0L0.308,-0L0.308,-0.106L0.227,-0.106L0.227,-0.26C0.232,-0.276 0.265,-0.358 0.366,-0.358C0.396,-0.358 0.415,-0.352 0.42,-0.35L0.42,-0.47Z" style="fill:rgb(77,77,77);fill-rule:nonzero;"/>
                </g>
                <g transform="matrix(318.832,0,0,318.832,3815.59,1421.71)">
                    <path d="M0.033,-0.154L0.033,-0.123C0.033,-0.057 0.085,0.007 0.244,0.007C0.396,0.007 0.454,-0.054 0.454,-0.13C0.454,-0.225 0.38,-0.253 0.292,-0.27C0.227,-0.282 0.166,-0.286 0.166,-0.33C0.166,-0.367 0.202,-0.384 0.243,-0.384C0.3,-0.384 0.325,-0.362 0.325,-0.323L0.325,-0.306L0.441,-0.306L0.441,-0.342C0.441,-0.412 0.391,-0.475 0.237,-0.475C0.104,-0.475 0.04,-0.408 0.04,-0.334C0.04,-0.222 0.138,-0.203 0.219,-0.188C0.277,-0.178 0.328,-0.169 0.328,-0.137C0.328,-0.107 0.308,-0.084 0.241,-0.084C0.179,-0.084 0.15,-0.109 0.15,-0.146L0.15,-0.154L0.033,-0.154Z" style="fill:rgb(77,77,77);fill-rule:nonzero;"/>
                </g>
                <g transform="matrix(318.832,0,0,318.832,3970.23,1421.71)">
                    <path d="M0.484,-0.266C0.484,-0.36 0.419,-0.474 0.273,-0.474C0.131,-0.474 0.032,-0.395 0.032,-0.234C0.032,-0.073 0.132,0.007 0.276,0.007C0.417,0.007 0.478,-0.051 0.478,-0.051L0.433,-0.145C0.433,-0.145 0.393,-0.096 0.296,-0.096C0.222,-0.096 0.169,-0.131 0.159,-0.206L0.476,-0.206C0.476,-0.206 0.484,-0.226 0.484,-0.266ZM0.274,-0.379C0.322,-0.379 0.366,-0.347 0.368,-0.28L0.159,-0.28C0.167,-0.339 0.209,-0.379 0.274,-0.379Z" style="fill:rgb(77,77,77);fill-rule:nonzero;"/>
                </g>
            </g>
            <path d="M1903.03,1050.74L1903.03,1091.07C1900.88,1090.97 1898.68,1090.92 1896.43,1090.92L1877.3,1090.92L1877.3,1229.93L1900.58,1229.93C1901.4,1229.93 1902.22,1229.92 1903.03,1229.91L1903.03,1270.1L1803.02,1270.1L1803.02,1231.52L1828.84,1231.52L1828.84,1089.32L1803.02,1089.32L1803.02,1050.74L1903.03,1050.74ZM1912.34,1050.84C1967.67,1052.78 2015.36,1083.32 2015.36,1159.47C2015.36,1243.63 1965.36,1269.9 1912.34,1270.1L1912.34,1229.41C1947.21,1226.15 1965.94,1206.98 1965.94,1159.47C1965.94,1118.36 1947.79,1096.63 1912.34,1091.91L1912.34,1050.84Z" style="fill:rgb(77,77,77);fill-rule:nonzero;"/>
            <path d="M1693.66,1050.74L1793.7,1050.74L1793.7,1089.32L1767.87,1089.32L1767.87,1231.52L1793.7,1231.52L1793.7,1270.1L1693.66,1270.1L1693.66,1229.91C1694.48,1229.92 1695.31,1229.93 1696.14,1229.93L1719.41,1229.93L1719.41,1090.92L1700.28,1090.92C1698.02,1090.92 1695.82,1090.97 1693.66,1091.08L1693.66,1050.74ZM1684.35,1050.84L1684.35,1091.91C1648.92,1096.64 1630.78,1118.37 1630.78,1159.47C1630.78,1206.97 1649.5,1226.14 1684.35,1229.41L1684.35,1270.1C1631.33,1269.89 1581.36,1243.62 1581.36,1159.47C1581.36,1083.34 1629.03,1052.79 1684.35,1050.84Z" style="fill:rgb(189,194,188);fill-rule:nonzero;"/>
        </g>
        <g id="RectangularLogoArtboard" transform="matrix(1.11382,0,0,1.11382,-1089.2,-411.408)">
            <rect x="977.895" y="719.265" width="1455.83" height="945.998" style="fill:none;"/>
        </g>
    </g>
</svg>
